<svg width="current" height="current" viewBox="0 0 24 24" xmlns="http://www.w3.org/2000/svg">
<path fill="current" fill-rule="evenodd" clip-rule="evenodd" d="M17.2638 5.10959C17.2638 2.29949 14.8895 0 11.9861 0C9.08264 0 6.70834 2.29949 6.70834 5.10959V11.4776C6.70834 14.2877 9.08264 16.5872 11.9861 16.5872C14.8895 16.5872 17.2638 14.2877 17.2638 11.4776V5.10959ZM20.6992 11.8489C20.6992 11.3015 20.2708 10.857 19.7412 10.857C19.2115 10.857 18.7831 11.3015 18.7831 11.8489C18.7831 15.4991 15.4671 18.3246 11.9511 18.3246C8.43529 18.3246 5.21683 15.4991 5.21683 11.8489C5.21683 11.3015 4.78847 10.857 4.2588 10.857C3.72936 10.857 3.30078 11.3016 3.30078 11.8489C3.30078 16.2425 6.7898 19.7758 10.9594 20.2541L10.9946 23.1472C10.9946 23.1472 11.1489 24 11.9864 24C12.824 24 12.9841 23.1472 12.9841 23.1472L12.9489 20.246C17.0827 19.7297 20.6992 16.212 20.6992 11.8489ZM11.9861 1.95154C13.8526 1.95154 15.3789 3.45666 15.3789 5.296V11.3181C15.3789 13.1574 13.8526 14.6625 11.9861 14.6625C10.1196 14.6625 8.59325 13.1574 8.59325 11.3181V5.296C8.59325 3.45666 10.1196 1.95154 11.9861 1.95154Z" />
<defs>
<linearGradient id="paint3_linear_377_944" x1="3.30078" y1="0" x2="26.1105" y2="16.5355" gradientUnits="userSpaceOnUse">
<stop stop-color="#4aaf3e"/>
<stop offset="1" stop-color="#4aaf3e"/>
</linearGradient>
</defs>
</svg>
